<?xml version="1.0" encoding="UTF-8" standalone="no"?>
<!DOCTYPE svg PUBLIC "-//W3C//DTD SVG 1.1//EN"
 "http://www.w3.org/Graphics/SVG/1.1/DTD/svg11.dtd">
<!-- Generated by graphviz version 14.0.2 (20251019.1705)
 -->
<!-- Pages: 1 -->
<svg width="218pt" height="188pt"
 viewBox="0.00 0.00 218.00 188.00" xmlns="http://www.w3.org/2000/svg" xmlns:xlink="http://www.w3.org/1999/xlink">
<g id="graph0" class="graph" transform="scale(1 1) rotate(0) translate(4 184)">
<polygon fill="white" stroke="none" points="-4,4 -4,-184 213.54,-184 213.54,4 -4,4"/>
<!-- hello -->
<g id="node1" class="node">
<title>hello</title>
<ellipse fill="none" stroke="black" cx="48.79" cy="-162" rx="29.34" ry="18"/>
<text xml:space="preserve" text-anchor="middle" x="48.79" y="-156.95" font-family="Times,serif" font-size="14.00">hello</text>
</g>
<!-- main.cmx -->
<g id="node2" class="node">
<title>main.cmx</title>
<ellipse fill="none" stroke="black" cx="48.79" cy="-90" rx="48.79" ry="18"/>
<text xml:space="preserve" text-anchor="middle" x="48.79" y="-84.95" font-family="Times,serif" font-size="14.00">main.cmx</text>
</g>
<!-- hello&#45;&gt;main.cmx -->
<g id="edge1" class="edge">
<title>hello&#45;&gt;main.cmx</title>
<path fill="none" stroke="black" d="M48.79,-143.7C48.79,-136.41 48.79,-127.73 48.79,-119.54"/>
<polygon fill="black" stroke="black" points="52.29,-119.62 48.79,-109.62 45.29,-119.62 52.29,-119.62"/>
</g>
<!-- main.ml -->
<g id="node4" class="node">
<title>main.ml</title>
<ellipse fill="none" stroke="black" cx="105.79" cy="-18" rx="42.65" ry="18"/>
<text xml:space="preserve" text-anchor="middle" x="105.79" y="-12.95" font-family="Times,serif" font-size="14.00">main.ml</text>
</g>
<!-- main.cmx&#45;&gt;main.ml -->
<g id="edge3" class="edge">
<title>main.cmx&#45;&gt;main.ml</title>
<path fill="none" stroke="black" d="M62.3,-72.41C69.12,-64.04 77.53,-53.71 85.13,-44.37"/>
<polygon fill="black" stroke="black" points="87.83,-46.61 91.43,-36.64 82.4,-42.19 87.83,-46.61"/>
</g>
<!-- main.cmi -->
<g id="node3" class="node">
<title>main.cmi</title>
<ellipse fill="none" stroke="black" cx="162.79" cy="-90" rx="46.75" ry="18"/>
<text xml:space="preserve" text-anchor="middle" x="162.79" y="-84.95" font-family="Times,serif" font-size="14.00">main.cmi</text>
</g>
<!-- main.cmi&#45;&gt;main.ml -->
<g id="edge2" class="edge">
<title>main.cmi&#45;&gt;main.ml</title>
<path fill="none" stroke="black" d="M149.28,-72.41C142.47,-64.04 134.06,-53.71 126.45,-44.37"/>
<polygon fill="black" stroke="black" points="129.19,-42.19 120.16,-36.64 123.76,-46.61 129.19,-42.19"/>
</g>
</g>
</svg>
